Coordinates
version=1
nRows=11
nColumns=40
inDegrees=yes

Units are S.I. units (second, meters, Newtons, ...)
Angles are in degrees.

endheader
time	pelvis_tilt	pelvis_list	pelvis_rotation	pelvis_tx	pelvis_ty	pelvis_tz	hip_flexion_r	hip_adduction_r	hip_rotation_r	knee_angle_r	knee_angle_r_beta	ankle_angle_r	subtalar_angle_r	mtp_angle_r	hip_flexion_l	hip_adduction_l	hip_rotation_l	knee_angle_l	knee_angle_l_beta	ankle_angle_l	subtalar_angle_l	mtp_angle_l	lumbar_extension	lumbar_bending	lumbar_rotation	arm_flex_r	arm_add_r	arm_rot_r	elbow_flex_r	pro_sup_r	wrist_flex_r	wrist_dev_r	arm_flex_l	arm_add_l	arm_rot_l	elbow_flex_l	pro_sup_l	wrist_flex_l	wrist_dev_l
      1.09000000	     -3.77966832	      2.64723846	     10.19794869	     -1.43163841	      0.95786200	     -1.34822980	     28.78185087	    -10.95816567	    -16.45708960	    -28.16352077	     -0.49154617	      2.58976843	     -4.93723185	     12.42605598	     -5.33246202	     -4.46542187	     22.83759508	     -7.40179204	     -0.12918564	      6.25449637	      4.94426314	     -8.17509318	     -5.81057381	     -2.62246143	     -3.93742697	      1.97566498	     -8.16082069	    -22.02814663	     19.26438946	     89.95437384	      0.00000000	      0.00000000	     14.61316440	     19.98538596	      2.34848805	     25.78843061	     89.95437384	      0.00000000	      0.00000000
      1.10000000	     -3.37665089	      2.11503568	     10.20817344	     -1.42426736	      0.95774888	     -1.34915135	     28.19259607	    -10.08666823	    -17.57381223	    -25.59780059	     -0.44676590	      2.08540539	     -3.69440711	     10.42183337	     -6.06010549	     -3.53760227	     24.34250260	     -7.70660204	     -0.13450558	      6.10950390	      2.64938220	     -9.50323877	     -6.17261584	     -1.98609401	     -4.30222066	      1.81611511	     -8.20518926	    -21.66072129	     19.12572878	     89.95437384	      0.00000000	      0.00000000	     15.07763734	     20.21441748	      2.94805363	     26.31810520	     89.95437384	      0.00000000	      0.00000000
      1.11000000	     -3.26553788	      1.84153293	     10.16449715	     -1.41730711	      0.95726628	     -1.35016535	     28.05578262	     -9.51991688	    -18.45745842	    -23.30965433	     -0.40683022	      1.84343831	     -2.53778812	     10.20352254	     -6.69068750	     -3.23727445	     24.23290018	     -7.55806886	     -0.13191319	      6.16565301	      2.80954057	     -9.71047737	     -6.32173984	     -1.65830973	     -4.63085839	      1.82875507	     -8.17393986	    -21.94299308	     18.89859295	     89.95437384	      0.00000000	      0.00000000	     15.51060874	     20.45565447	      3.47873076	     26.78373861	     89.95437384	      0.00000000	      0.00000000
      1.12000000	     -3.24809805	      1.62748910	     10.15225395	     -1.41032602	      0.95657782	     -1.35123946	     28.04848694	     -9.08160188	    -19.42198520	    -21.16585618	     -0.36941388	      1.48445580	     -1.23320440	     10.02364743	     -7.15779061	     -2.97005781	     24.39530150	     -7.56102003	     -0.13196469	      6.19840927	      2.66514872	     -9.89024376	     -6.35415965	     -1.38931820	     -4.99633410	      1.82569824	     -8.15853629	    -22.10218901	     18.65582736	     89.95437384	      0.00000000	      0.00000000	     15.85926593	     20.69589376	      3.93439359	     27.26199625	     89.95437384	      0.00000000	      0.00000000
      1.13000000	     -3.49828979	      1.74200872	     10.02670937	     -1.40323481	      0.95533258	     -1.35222335	     28.57133832	     -9.01956591	    -20.15873529	    -19.75972845	     -0.34487232	      1.67504842	     -0.87700691	      9.98499102	     -7.46108213	     -3.16612634	     24.63060188	     -7.44394297	     -0.12992131	      6.34441484	      2.63772950	     -9.94560903	     -6.10594481	     -1.57422637	     -5.14800517	      1.64398439	     -8.14598410	    -22.17881510	     18.48884551	     89.95437384	      0.00000000	      0.00000000	     16.30006745	     20.93955268	      4.09642890	     27.53607367	     89.95437384	      0.00000000	      0.00000000
      1.14000000	     -2.80930189	      0.92667264	     10.40258412	     -1.39525344	      0.95561738	     -1.35325804	     27.31992207	     -7.99434891	    -22.17805196	    -17.02316571	     -0.29711029	      0.06049463	      1.87882716	      3.11573517	     -8.41914878	     -1.78893140	     25.48090020	     -7.84017889	     -0.13683694	      5.70262264	      0.72813341	    -12.75686139	     -6.71361878	     -0.52217188	     -5.84170293	      1.75356062	     -8.14966708	    -22.59685176	     18.16770621	     89.95437384	      0.00000000	      0.00000000	     16.56500623	     21.00238326	      5.02524151	     27.99368474	     89.95437384	      0.00000000	      0.00000000
      1.15000000	     -2.95369192	      0.79858570	     10.43648674	     -1.38781864	      0.95450604	     -1.35394965	     27.45873351	     -7.61535300	    -22.89455573	    -15.35340743	     -0.26796751	     -0.10285467	      2.86818301	      3.11281709	     -8.72629908	     -1.60488026	     25.37378721	     -7.89667012	     -0.13782289	      5.73363334	      0.78297480	    -12.76436692	     -6.56575256	     -0.39165886	     -6.06166698	      1.56561238	     -8.14706118	    -22.87744813	     18.06328170	     89.95437384	      0.00000000	      0.00000000	     16.92238062	     21.14726061	      5.27367941	     28.35150880	     89.95437384	      0.00000000	      0.00000000
      1.16000000	     -2.95136221	      0.59913199	     10.62639493	     -1.38013779	      0.95366889	     -1.35478112	     27.33861288	     -7.24685371	    -23.78288384	    -13.80818048	     -0.24099821	     -0.11149507	      4.04997090	      3.07275787	     -9.12455165	     -1.25995640	     25.27811329	     -8.06415076	     -0.14074598	      5.73865339	      0.74863295	    -12.81177378	     -6.50317915	     -0.17731737	     -6.54414833	      1.54896486	     -8.09757836	    -23.29599369	     17.76583234	     89.95437384	      0.00000000	      0.00000000	     17.13579208	     21.30234825	      5.74219594	     28.69087067	     89.95437384	      0.00000000	      0.00000000
      1.17000000	     -2.76001397	      0.33578325	     10.95381102	     -1.37223281	      0.95299851	     -1.35574364	     27.02812363	     -6.90202641	    -25.07784425	    -12.62480477	     -0.22034441	     -0.02160286	      5.17157377	      2.93539928	     -9.70774411	     -0.74835955	     25.09675866	     -8.28675551	     -0.14463117	      5.84070812	      0.52752230	    -12.89310853	     -6.67315863	      0.20578972	     -7.01726645	      1.35052981	     -8.07286049	    -23.62628156	     17.69985434	     89.95437384	      0.00000000	      0.00000000	     17.46505648	     21.34181412	      6.15448923	     28.98372888	     89.95437384	      0.00000000	      0.00000000
      1.18000000	     -2.90903444	      0.43451020	     10.93794135	     -1.36420107	      0.95173560	     -1.35640165	     27.38785232	     -6.90286101	    -25.47746218	    -12.28358549	     -0.21438901	      0.13548733	      5.13632396	      2.88304100	    -10.07069099	     -0.78087981	     25.20703130	     -8.39956372	     -0.14660004	      5.92728292	      0.53266898	    -12.84801501	     -6.45666900	      0.07178544	     -7.18945922	      1.11538713	     -8.09498560	    -23.64579166	     17.56376143	     89.95437384	      0.00000000	      0.00000000	     17.70661250	     21.47782757	      6.25835466	     29.20312627	     89.95437384	      0.00000000	      0.00000000
      1.19000000	     -3.00311724	      0.44792253	     11.10781293	     -1.35583419	      0.95050911	     -1.35709278	     27.55812210	     -6.87725417	    -25.81382342	    -12.04223034	     -0.21017657	      0.27247762	      5.14664161	      2.80479722	    -10.41547408	     -0.64129599	     25.16523478	     -8.63972084	     -0.15079158	      5.90539403	      0.46429607	    -12.77132726	     -6.27546965	      0.06269204	     -7.49720097	      0.81920640	     -8.07291707	    -23.77942115	     17.49424004	     89.95437384	      0.00000000	      0.00000000	     17.85142757	     21.52028589	      6.46357286	     29.51294374	     89.95437384	      0.00000000	      0.00000000
